<mxfile host="app.diagrams.net" agent="Mozilla/5.0 (Macintosh; Intel Mac OS X 10_15_7) AppleWebKit/537.36 (KHTML, like Gecko) Chrome/137.0.0.0 Safari/537.36 Edg/137.0.0.0" version="28.1.1">
  <diagram name="第 1 页" id="GihPcrfnmI2yeeb2ZCyP">
    <mxGraphModel dx="994" dy="561" grid="1" gridSize="10" guides="1" tooltips="1" connect="1" arrows="1" fold="1" page="1" pageScale="1" pageWidth="1169" pageHeight="827" math="0" shadow="0">
      <root>
        <mxCell id="0" />
        <mxCell id="1" parent="0" />
        <mxCell id="Ou7Ov8VBQ3u9trpfz4ck-3" style="edgeStyle=orthogonalEdgeStyle;rounded=0;orthogonalLoop=1;jettySize=auto;html=1;exitX=0.5;exitY=1;exitDx=0;exitDy=0;" edge="1" parent="1" source="Ou7Ov8VBQ3u9trpfz4ck-1" target="Ou7Ov8VBQ3u9trpfz4ck-2">
          <mxGeometry relative="1" as="geometry" />
        </mxCell>
        <mxCell id="Ou7Ov8VBQ3u9trpfz4ck-1" value="&lt;font style=&quot;font-size: 16px;&quot;&gt;开始事务&lt;/font&gt;" style="rounded=1;whiteSpace=wrap;html=1;" vertex="1" parent="1">
          <mxGeometry x="310" y="10" width="120" height="60" as="geometry" />
        </mxCell>
        <mxCell id="Ou7Ov8VBQ3u9trpfz4ck-5" style="edgeStyle=orthogonalEdgeStyle;rounded=0;orthogonalLoop=1;jettySize=auto;html=1;exitX=0.5;exitY=1;exitDx=0;exitDy=0;entryX=0.5;entryY=0;entryDx=0;entryDy=0;" edge="1" parent="1" source="Ou7Ov8VBQ3u9trpfz4ck-2" target="Ou7Ov8VBQ3u9trpfz4ck-4">
          <mxGeometry relative="1" as="geometry" />
        </mxCell>
        <mxCell id="Ou7Ov8VBQ3u9trpfz4ck-2" value="&lt;span style=&quot;font-size: 16px;&quot;&gt;写入Buffer Pool&lt;/span&gt;" style="rounded=1;whiteSpace=wrap;html=1;" vertex="1" parent="1">
          <mxGeometry x="310" y="100" width="120" height="60" as="geometry" />
        </mxCell>
        <mxCell id="Ou7Ov8VBQ3u9trpfz4ck-8" style="edgeStyle=orthogonalEdgeStyle;rounded=0;orthogonalLoop=1;jettySize=auto;html=1;exitX=0.5;exitY=1;exitDx=0;exitDy=0;entryX=0.5;entryY=0;entryDx=0;entryDy=0;" edge="1" parent="1" source="Ou7Ov8VBQ3u9trpfz4ck-4" target="Ou7Ov8VBQ3u9trpfz4ck-6">
          <mxGeometry relative="1" as="geometry" />
        </mxCell>
        <mxCell id="Ou7Ov8VBQ3u9trpfz4ck-4" value="&lt;span style=&quot;font-size: 16px;&quot;&gt;写入redo log buffer&lt;/span&gt;" style="rounded=1;whiteSpace=wrap;html=1;" vertex="1" parent="1">
          <mxGeometry x="310" y="190" width="120" height="60" as="geometry" />
        </mxCell>
        <mxCell id="Ou7Ov8VBQ3u9trpfz4ck-12" style="edgeStyle=orthogonalEdgeStyle;rounded=0;orthogonalLoop=1;jettySize=auto;html=1;exitX=0.5;exitY=1;exitDx=0;exitDy=0;entryX=0.5;entryY=0;entryDx=0;entryDy=0;" edge="1" parent="1" source="Ou7Ov8VBQ3u9trpfz4ck-6" target="Ou7Ov8VBQ3u9trpfz4ck-11">
          <mxGeometry relative="1" as="geometry" />
        </mxCell>
        <mxCell id="Ou7Ov8VBQ3u9trpfz4ck-6" value="&lt;font style=&quot;font-size: 16px;&quot;&gt;后台线程&lt;/font&gt;" style="shape=process;whiteSpace=wrap;html=1;backgroundOutline=1;" vertex="1" parent="1">
          <mxGeometry x="310" y="280" width="120" height="60" as="geometry" />
        </mxCell>
        <mxCell id="Ou7Ov8VBQ3u9trpfz4ck-22" style="edgeStyle=orthogonalEdgeStyle;rounded=0;orthogonalLoop=1;jettySize=auto;html=1;exitX=0;exitY=0.5;exitDx=0;exitDy=0;entryX=0;entryY=0.5;entryDx=0;entryDy=0;" edge="1" parent="1" source="Ou7Ov8VBQ3u9trpfz4ck-11" target="Ou7Ov8VBQ3u9trpfz4ck-19">
          <mxGeometry relative="1" as="geometry">
            <Array as="points">
              <mxPoint x="220" y="410" />
              <mxPoint x="220" y="720" />
            </Array>
          </mxGeometry>
        </mxCell>
        <mxCell id="Ou7Ov8VBQ3u9trpfz4ck-41" value="innodb_flush_log_at_trx_commit=0" style="edgeLabel;html=1;align=center;verticalAlign=middle;resizable=0;points=[];" vertex="1" connectable="0" parent="Ou7Ov8VBQ3u9trpfz4ck-22">
          <mxGeometry x="-0.2477" y="1" relative="1" as="geometry">
            <mxPoint as="offset" />
          </mxGeometry>
        </mxCell>
        <mxCell id="Ou7Ov8VBQ3u9trpfz4ck-30" style="edgeStyle=orthogonalEdgeStyle;rounded=0;orthogonalLoop=1;jettySize=auto;html=1;exitX=1;exitY=0.5;exitDx=0;exitDy=0;" edge="1" parent="1" source="Ou7Ov8VBQ3u9trpfz4ck-11" target="Ou7Ov8VBQ3u9trpfz4ck-13">
          <mxGeometry relative="1" as="geometry" />
        </mxCell>
        <mxCell id="Ou7Ov8VBQ3u9trpfz4ck-11" value="" style="rhombus;whiteSpace=wrap;html=1;" vertex="1" parent="1">
          <mxGeometry x="330" y="370" width="80" height="80" as="geometry" />
        </mxCell>
        <mxCell id="Ou7Ov8VBQ3u9trpfz4ck-33" style="edgeStyle=orthogonalEdgeStyle;rounded=0;orthogonalLoop=1;jettySize=auto;html=1;exitX=0.5;exitY=1;exitDx=0;exitDy=0;entryX=0.5;entryY=0;entryDx=0;entryDy=0;" edge="1" parent="1" source="Ou7Ov8VBQ3u9trpfz4ck-13" target="Ou7Ov8VBQ3u9trpfz4ck-32">
          <mxGeometry relative="1" as="geometry" />
        </mxCell>
        <mxCell id="Ou7Ov8VBQ3u9trpfz4ck-13" value="&lt;span style=&quot;font-size: 16px;&quot;&gt;写入OS缓存page cache&lt;/span&gt;" style="rounded=1;whiteSpace=wrap;html=1;" vertex="1" parent="1">
          <mxGeometry x="480" y="380" width="120" height="60" as="geometry" />
        </mxCell>
        <mxCell id="Ou7Ov8VBQ3u9trpfz4ck-39" style="edgeStyle=orthogonalEdgeStyle;rounded=0;orthogonalLoop=1;jettySize=auto;html=1;exitX=0.5;exitY=1;exitDx=0;exitDy=0;entryX=0.5;entryY=0;entryDx=0;entryDy=0;" edge="1" parent="1" source="Ou7Ov8VBQ3u9trpfz4ck-17" target="Ou7Ov8VBQ3u9trpfz4ck-19">
          <mxGeometry relative="1" as="geometry" />
        </mxCell>
        <mxCell id="Ou7Ov8VBQ3u9trpfz4ck-17" value="&lt;span style=&quot;font-size: 16px;&quot;&gt;写入redolog磁盘文件&lt;/span&gt;" style="rounded=1;whiteSpace=wrap;html=1;" vertex="1" parent="1">
          <mxGeometry x="310" y="570" width="120" height="60" as="geometry" />
        </mxCell>
        <mxCell id="Ou7Ov8VBQ3u9trpfz4ck-19" value="&lt;span style=&quot;font-size: 16px;&quot;&gt;提交事务&lt;/span&gt;" style="rounded=1;whiteSpace=wrap;html=1;" vertex="1" parent="1">
          <mxGeometry x="310" y="690" width="120" height="60" as="geometry" />
        </mxCell>
        <mxCell id="Ou7Ov8VBQ3u9trpfz4ck-23" value="&lt;font style=&quot;font-size: 14px;&quot;&gt;后台线程每隔1秒钟就将redo log buffer数据写入到page cache然后再持久化到redo log磁盘文件&lt;/font&gt;" style="shape=note;whiteSpace=wrap;html=1;backgroundOutline=1;darkOpacity=0.05;" vertex="1" parent="1">
          <mxGeometry x="620" y="235" width="160" height="150" as="geometry" />
        </mxCell>
        <mxCell id="Ou7Ov8VBQ3u9trpfz4ck-24" style="edgeStyle=orthogonalEdgeStyle;rounded=0;orthogonalLoop=1;jettySize=auto;html=1;exitX=0.5;exitY=0;exitDx=0;exitDy=0;entryX=0;entryY=0.5;entryDx=0;entryDy=0;entryPerimeter=0;dashed=1;dashPattern=8 8;" edge="1" parent="1" source="Ou7Ov8VBQ3u9trpfz4ck-13" target="Ou7Ov8VBQ3u9trpfz4ck-23">
          <mxGeometry relative="1" as="geometry" />
        </mxCell>
        <mxCell id="Ou7Ov8VBQ3u9trpfz4ck-34" style="edgeStyle=orthogonalEdgeStyle;rounded=0;orthogonalLoop=1;jettySize=auto;html=1;exitX=0.5;exitY=1;exitDx=0;exitDy=0;entryX=1;entryY=0.5;entryDx=0;entryDy=0;" edge="1" parent="1" source="Ou7Ov8VBQ3u9trpfz4ck-32" target="Ou7Ov8VBQ3u9trpfz4ck-19">
          <mxGeometry relative="1" as="geometry" />
        </mxCell>
        <mxCell id="Ou7Ov8VBQ3u9trpfz4ck-42" value="innodb_flush_log_at_trx_commit=2" style="edgeLabel;html=1;align=center;verticalAlign=middle;resizable=0;points=[];" vertex="1" connectable="0" parent="Ou7Ov8VBQ3u9trpfz4ck-34">
          <mxGeometry x="-0.6579" y="-1" relative="1" as="geometry">
            <mxPoint y="1" as="offset" />
          </mxGeometry>
        </mxCell>
        <mxCell id="Ou7Ov8VBQ3u9trpfz4ck-38" style="edgeStyle=orthogonalEdgeStyle;rounded=0;orthogonalLoop=1;jettySize=auto;html=1;exitX=0;exitY=0.5;exitDx=0;exitDy=0;entryX=0.5;entryY=0;entryDx=0;entryDy=0;" edge="1" parent="1" source="Ou7Ov8VBQ3u9trpfz4ck-32" target="Ou7Ov8VBQ3u9trpfz4ck-17">
          <mxGeometry relative="1" as="geometry" />
        </mxCell>
        <mxCell id="Ou7Ov8VBQ3u9trpfz4ck-43" value="innodb_flush_log_at_trx_commit=1" style="edgeLabel;html=1;align=center;verticalAlign=middle;resizable=0;points=[];" vertex="1" connectable="0" parent="Ou7Ov8VBQ3u9trpfz4ck-38">
          <mxGeometry x="0.7706" y="1" relative="1" as="geometry">
            <mxPoint as="offset" />
          </mxGeometry>
        </mxCell>
        <mxCell id="Ou7Ov8VBQ3u9trpfz4ck-32" value="" style="rhombus;whiteSpace=wrap;html=1;" vertex="1" parent="1">
          <mxGeometry x="500" y="490" width="80" height="80" as="geometry" />
        </mxCell>
      </root>
    </mxGraphModel>
  </diagram>
</mxfile>
